<svg xmlns="http://www.w3.org/2000/svg" xmlns:xlink="http://www.w3.org/1999/xlink" width="300" zoomAndPan="magnify" viewBox="0 0 224.87999 74.999997" height="100" preserveAspectRatio="xMidYMid meet" version="1.0"><defs><g/><clipPath id="2349e549b3"><path d="M 0.214844 0.0117188 L 60.183594 0.0117188 L 60.183594 45.347656 L 0.214844 45.347656 Z M 0.214844 0.0117188 " clip-rule="nonzero"/></clipPath><clipPath id="bcb598f4db"><path d="M 0.214844 35 L 1 35 L 1 36 L 0.214844 36 Z M 0.214844 35 " clip-rule="nonzero"/></clipPath><clipPath id="ca8f683e8e"><rect x="0" width="61" y="0" height="46"/></clipPath><clipPath id="1e0466f4af"><rect x="0" width="61" y="0" height="46"/></clipPath><clipPath id="bea6491191"><path d="M 13.804688 22.507812 L 56.535156 22.507812 L 56.535156 52.492188 L 13.804688 52.492188 Z M 13.804688 22.507812 " clip-rule="nonzero"/></clipPath><clipPath id="0edd0e200f"><path d="M 0.699219 0.25 L 105.042969 0.25 L 105.042969 45.105469 L 0.699219 45.105469 Z M 0.699219 0.25 " clip-rule="nonzero"/></clipPath><clipPath id="6c5710a38c"><rect x="0" width="106" y="0" height="46"/></clipPath><clipPath id="0ea9485689"><rect x="0" width="106" y="0" height="46"/></clipPath></defs><g transform="matrix(1, 0, 0, 1, 48, 18)"><g clip-path="url(#1e0466f4af)"><g clip-path="url(#2349e549b3)"><g transform="matrix(1, 0, 0, 1, 0.000000000000007105, 0)"><g clip-path="url(#ca8f683e8e)"><g clip-path="url(#bcb598f4db)"><g fill="#1682d0" fill-opacity="1"><g transform="translate(0.440358, 35.339566)"><g/></g></g></g><g fill="#1682d0" fill-opacity="1"><g transform="translate(8.008736, 35.339566)"><g/></g></g><g fill="#1682d0" fill-opacity="1"><g transform="translate(8.008736, 35.339566)"><g><path d="M 2.578125 0 C 2.191406 0 1.921875 -0.0703125 1.765625 -0.21875 C 1.617188 -0.375 1.546875 -0.617188 1.546875 -0.953125 L 1.546875 -27.203125 C 1.546875 -27.484375 1.609375 -27.695312 1.734375 -27.84375 C 1.867188 -28 2.046875 -28.078125 2.265625 -28.078125 L 8.4375 -28.078125 C 8.894531 -28.078125 9.125 -27.8125 9.125 -27.28125 L 9.125 -18.765625 C 9.125 -18.441406 9.222656 -18.28125 9.421875 -18.28125 C 9.523438 -18.28125 9.664062 -18.34375 9.84375 -18.46875 C 10.570312 -19.175781 11.328125 -19.679688 12.109375 -19.984375 C 12.890625 -20.285156 13.734375 -20.4375 14.640625 -20.4375 C 17.085938 -20.4375 19 -19.519531 20.375 -17.6875 C 21.75 -15.863281 22.4375 -13.363281 22.4375 -10.1875 C 22.4375 -6.925781 21.6875 -4.347656 20.1875 -2.453125 C 18.6875 -0.566406 16.570312 0.375 13.84375 0.375 C 12.6875 0.375 11.601562 0.0976562 10.59375 -0.453125 C 9.582031 -1.003906 8.703125 -1.773438 7.953125 -2.765625 C 7.847656 -2.859375 7.757812 -2.90625 7.6875 -2.90625 C 7.601562 -2.90625 7.523438 -2.820312 7.453125 -2.65625 L 6.84375 -0.875 C 6.664062 -0.289062 6.335938 0 5.859375 0 Z M 9.125 -7 C 9.125 -6.0625 9.367188 -5.332031 9.859375 -4.8125 C 10.347656 -4.300781 11 -4.046875 11.8125 -4.046875 C 12.820312 -4.046875 13.570312 -4.503906 14.0625 -5.421875 C 14.550781 -6.347656 14.796875 -7.882812 14.796875 -10.03125 C 14.796875 -12.144531 14.554688 -13.632812 14.078125 -14.5 C 13.597656 -15.375 12.878906 -15.8125 11.921875 -15.8125 C 10.859375 -15.8125 9.925781 -15.3125 9.125 -14.3125 Z M 9.125 -7 "/></g></g></g><g fill="#1682d0" fill-opacity="1"><g transform="translate(31.319351, 35.339566)"><g><path d="M 9.125 -22.8125 C 9.125 -22.4375 9.019531 -22.160156 8.8125 -21.984375 C 8.613281 -21.804688 8.300781 -21.71875 7.875 -21.71875 L 2.53125 -21.71875 C 2.175781 -21.71875 1.921875 -21.800781 1.765625 -21.96875 C 1.617188 -22.132812 1.546875 -22.378906 1.546875 -22.703125 L 1.546875 -27.203125 C 1.546875 -27.785156 1.785156 -28.078125 2.265625 -28.078125 L 8.4375 -28.078125 C 8.632812 -28.078125 8.796875 -28.003906 8.921875 -27.859375 C 9.054688 -27.722656 9.125 -27.53125 9.125 -27.28125 Z M 9.125 -1.09375 C 9.125 -0.6875 9.019531 -0.398438 8.8125 -0.234375 C 8.613281 -0.078125 8.300781 0 7.875 0 L 2.53125 0 C 2.15625 0 1.894531 -0.0703125 1.75 -0.21875 C 1.613281 -0.375 1.546875 -0.617188 1.546875 -0.953125 L 1.546875 -19.1875 C 1.546875 -19.769531 1.785156 -20.0625 2.265625 -20.0625 L 8.4375 -20.0625 C 8.632812 -20.0625 8.796875 -19.988281 8.921875 -19.84375 C 9.054688 -19.707031 9.125 -19.523438 9.125 -19.296875 Z M 9.125 -1.09375 "/></g></g></g><g fill="#1682d0" fill-opacity="1"><g transform="translate(41.990766, 35.339566)"><g><path d="M 12.03125 -14.953125 C 11.707031 -14.953125 11.546875 -14.785156 11.546875 -14.453125 L 11.546875 -7.1875 C 11.546875 -6.507812 11.757812 -6.003906 12.1875 -5.671875 C 12.613281 -5.347656 13.28125 -5.1875 14.1875 -5.1875 L 15.8125 -5.1875 C 16.019531 -5.1875 16.1875 -5.109375 16.3125 -4.953125 C 16.4375 -4.804688 16.5 -4.628906 16.5 -4.421875 L 16.46875 -1.40625 C 16.46875 -0.789062 16.097656 -0.410156 15.359375 -0.265625 C 14.078125 -0.0859375 12.375 0 10.25 0 C 8.382812 0 6.867188 -0.441406 5.703125 -1.328125 C 4.546875 -2.210938 3.96875 -3.445312 3.96875 -5.03125 L 3.96875 -14.265625 C 3.96875 -14.515625 3.929688 -14.691406 3.859375 -14.796875 C 3.785156 -14.898438 3.632812 -14.953125 3.40625 -14.953125 L 1.59375 -14.953125 C 0.988281 -14.953125 0.6875 -15.226562 0.6875 -15.78125 L 0.6875 -19.34375 C 0.6875 -19.820312 0.960938 -20.0625 1.515625 -20.0625 L 3.75 -20.0625 C 4.019531 -20.0625 4.171875 -20.210938 4.203125 -20.515625 L 4.8125 -26.109375 C 4.851562 -26.617188 5.078125 -26.875 5.484375 -26.875 L 11.046875 -26.875 C 11.253906 -26.875 11.425781 -26.796875 11.5625 -26.640625 C 11.695312 -26.492188 11.765625 -26.289062 11.765625 -26.03125 L 11.765625 -20.515625 C 11.765625 -20.234375 11.90625 -20.09375 12.1875 -20.09375 L 15.671875 -20.09375 C 16.222656 -20.09375 16.5 -19.851562 16.5 -19.375 L 16.5 -15.78125 C 16.5 -15.53125 16.414062 -15.328125 16.25 -15.171875 C 16.09375 -15.023438 15.859375 -14.953125 15.546875 -14.953125 Z M 12.03125 -14.953125 "/></g></g></g><g fill="#1682d0" fill-opacity="1"><g transform="translate(59.485969, 35.339566)"><g/></g></g></g></g></g></g></g><g clip-path="url(#bea6491191)"><path fill="#0d3e80" d="M 45.03125 22.507812 L 32.96875 22.507812 L 32.96875 40.632812 C 32.578125 44.511719 30.273438 46.503906 26.667969 46.503906 C 22.703125 46.503906 20.300781 44.015625 20.300781 39.210938 L 20.300781 22.507812 L 13.804688 22.507812 L 13.804688 39.375 C 13.804688 48.0625 18.65625 52.492188 26.582031 52.492188 C 29.003906 52.492188 31.152344 52.078125 32.96875 51.253906 L 32.96875 52.492188 L 39.132812 52.492188 L 39.132812 36.074219 L 35.289062 36.074219 L 41.628906 27.382812 L 47.972656 36.074219 L 44.121094 36.074219 L 44.121094 43.171875 L 44.394531 43.171875 C 51.019531 43.171875 56.332031 39.628906 56.332031 32.800781 L 56.332031 32.714844 C 56.332031 26.6875 52.070312 22.507812 45.03125 22.507812 Z M 45.03125 22.507812 " fill-opacity="1" fill-rule="nonzero"/></g><g transform="matrix(1, 0, 0, 1, 113, 18)"><g clip-path="url(#0ea9485689)"><g clip-path="url(#0edd0e200f)"><g transform="matrix(1, 0, 0, 1, 0.000000000000014211, 0.000000000000003553)"><g clip-path="url(#6c5710a38c)"><g fill="#1682d0" fill-opacity="1"><g transform="translate(2.122058, 35.69425)"><g><path d="M 11.890625 -14.78125 C 11.566406 -14.78125 11.40625 -14.617188 11.40625 -14.296875 L 11.40625 -7.109375 C 11.40625 -6.429688 11.617188 -5.929688 12.046875 -5.609375 C 12.472656 -5.285156 13.132812 -5.125 14.03125 -5.125 L 15.640625 -5.125 C 15.835938 -5.125 16 -5.046875 16.125 -4.890625 C 16.25 -4.742188 16.3125 -4.570312 16.3125 -4.375 L 16.265625 -1.390625 C 16.265625 -0.785156 15.90625 -0.410156 15.1875 -0.265625 C 13.914062 -0.0859375 12.234375 0 10.140625 0 C 8.296875 0 6.796875 -0.4375 5.640625 -1.3125 C 4.492188 -2.1875 3.921875 -3.40625 3.921875 -4.96875 L 3.921875 -14.109375 C 3.921875 -14.347656 3.882812 -14.519531 3.8125 -14.625 C 3.738281 -14.726562 3.585938 -14.78125 3.359375 -14.78125 L 1.578125 -14.78125 C 0.972656 -14.78125 0.671875 -15.050781 0.671875 -15.59375 L 0.671875 -19.109375 C 0.671875 -19.585938 0.945312 -19.828125 1.5 -19.828125 L 3.703125 -19.828125 C 3.972656 -19.828125 4.125 -19.976562 4.15625 -20.28125 L 4.75 -25.8125 C 4.800781 -26.3125 5.023438 -26.5625 5.421875 -26.5625 L 10.921875 -26.5625 C 11.117188 -26.5625 11.285156 -26.484375 11.421875 -26.328125 C 11.566406 -26.179688 11.640625 -25.984375 11.640625 -25.734375 L 11.640625 -20.28125 C 11.640625 -20 11.773438 -19.859375 12.046875 -19.859375 L 15.484375 -19.859375 C 16.035156 -19.859375 16.3125 -19.625 16.3125 -19.15625 L 16.3125 -15.59375 C 16.3125 -15.34375 16.226562 -15.144531 16.0625 -15 C 15.90625 -14.851562 15.675781 -14.78125 15.375 -14.78125 Z M 11.890625 -14.78125 "/></g></g></g><g fill="#1682d0" fill-opacity="1"><g transform="translate(19.38981, 35.69425)"><g><path d="M 2.5 0 C 2.125 0 1.867188 -0.0703125 1.734375 -0.21875 C 1.597656 -0.375 1.53125 -0.613281 1.53125 -0.9375 L 1.53125 -18.96875 C 1.53125 -19.539062 1.769531 -19.828125 2.25 -19.828125 L 8.078125 -19.828125 C 8.273438 -19.828125 8.4375 -19.753906 8.5625 -19.609375 C 8.6875 -19.472656 8.75 -19.296875 8.75 -19.078125 L 8.75 -16.984375 C 8.75 -16.753906 8.835938 -16.640625 9.015625 -16.640625 C 9.140625 -16.640625 9.265625 -16.71875 9.390625 -16.875 C 9.984375 -17.789062 10.816406 -18.570312 11.890625 -19.21875 C 12.960938 -19.875 13.9375 -20.203125 14.8125 -20.203125 C 15.738281 -20.203125 16.203125 -19.953125 16.203125 -19.453125 L 16.203125 -13.765625 C 16.203125 -13.515625 16.128906 -13.335938 15.984375 -13.234375 C 15.847656 -13.140625 15.671875 -13.117188 15.453125 -13.171875 C 14.378906 -13.441406 13.304688 -13.578125 12.234375 -13.578125 C 11.410156 -13.578125 10.664062 -13.3125 10 -12.78125 C 9.34375 -12.257812 9.015625 -11.675781 9.015625 -11.03125 L 9.015625 -1.078125 C 9.015625 -0.679688 8.914062 -0.398438 8.71875 -0.234375 C 8.519531 -0.078125 8.207031 0 7.78125 0 Z M 2.5 0 "/></g></g></g><g fill="#1682d0" fill-opacity="1"><g transform="translate(35.984491, 35.69425)"><g><path d="M 12.078125 -1.578125 C 10.535156 -0.273438 8.726562 0.375 6.65625 0.375 C 4.832031 0.375 3.378906 -0.132812 2.296875 -1.15625 C 1.210938 -2.175781 0.671875 -3.488281 0.671875 -5.09375 C 0.671875 -6.53125 1.140625 -7.804688 2.078125 -8.921875 C 3.015625 -10.035156 4.347656 -10.894531 6.078125 -11.5 C 7.804688 -12.113281 9.832031 -12.421875 12.15625 -12.421875 L 12.421875 -12.421875 C 12.796875 -12.421875 12.984375 -12.59375 12.984375 -12.9375 L 12.984375 -13.578125 C 12.984375 -15.023438 12.242188 -15.75 10.765625 -15.75 C 10.171875 -15.75 9.609375 -15.609375 9.078125 -15.328125 C 8.554688 -15.054688 8.148438 -14.609375 7.859375 -13.984375 C 7.785156 -13.816406 7.703125 -13.703125 7.609375 -13.640625 C 7.523438 -13.578125 7.40625 -13.546875 7.25 -13.546875 C 7.082031 -13.546875 6.945312 -13.554688 6.84375 -13.578125 L 1.9375 -14.546875 C 1.664062 -14.597656 1.53125 -14.757812 1.53125 -15.03125 C 1.53125 -15.207031 1.582031 -15.445312 1.6875 -15.75 C 2.726562 -18.71875 5.867188 -20.203125 11.109375 -20.203125 C 14.378906 -20.203125 16.691406 -19.664062 18.046875 -18.59375 C 19.410156 -17.519531 20.09375 -16 20.09375 -14.03125 L 20.09375 -1.015625 C 20.09375 -0.640625 20.035156 -0.375 19.921875 -0.21875 C 19.804688 -0.0703125 19.578125 0 19.234375 0 L 14.109375 0 C 13.804688 0 13.582031 -0.109375 13.4375 -0.328125 C 13.300781 -0.554688 13.195312 -0.882812 13.125 -1.3125 L 13.09375 -1.578125 C 13.070312 -1.816406 12.972656 -1.9375 12.796875 -1.9375 C 12.597656 -1.9375 12.359375 -1.816406 12.078125 -1.578125 Z M 12.984375 -8.375 C 12.984375 -8.625 12.941406 -8.796875 12.859375 -8.890625 C 12.785156 -8.992188 12.640625 -9.046875 12.421875 -9.046875 L 12.265625 -9.046875 C 11.796875 -9.046875 11.21875 -8.929688 10.53125 -8.703125 C 9.84375 -8.484375 9.238281 -8.15625 8.71875 -7.71875 C 8.195312 -7.28125 7.9375 -6.738281 7.9375 -6.09375 C 7.9375 -5.570312 8.117188 -5.148438 8.484375 -4.828125 C 8.859375 -4.503906 9.382812 -4.34375 10.0625 -4.34375 C 10.863281 -4.34375 11.550781 -4.578125 12.125 -5.046875 C 12.695312 -5.523438 12.984375 -5.972656 12.984375 -6.390625 Z M 12.984375 -8.375 "/></g></g></g><g fill="#1682d0" fill-opacity="1"><g transform="translate(57.400971, 35.69425)"><g><path d="M 15.078125 0 C 14.796875 0 14.566406 -0.0664062 14.390625 -0.203125 C 14.222656 -0.335938 14.140625 -0.554688 14.140625 -0.859375 L 14.140625 -1.578125 C 14.140625 -1.671875 14.113281 -1.742188 14.0625 -1.796875 C 14.007812 -1.847656 13.960938 -1.875 13.921875 -1.875 C 13.835938 -1.875 13.722656 -1.820312 13.578125 -1.71875 C 12.804688 -1 12.015625 -0.46875 11.203125 -0.125 C 10.390625 0.207031 9.4375 0.375 8.34375 0.375 C 6.070312 0.375 4.253906 -0.503906 2.890625 -2.265625 C 1.535156 -4.023438 0.859375 -6.550781 0.859375 -9.84375 C 0.859375 -11.863281 1.21875 -13.664062 1.9375 -15.25 C 2.664062 -16.832031 3.632812 -18.050781 4.84375 -18.90625 C 6.050781 -19.769531 7.34375 -20.203125 8.71875 -20.203125 C 9.613281 -20.203125 10.425781 -20.054688 11.15625 -19.765625 C 11.894531 -19.484375 12.628906 -18.976562 13.359375 -18.25 C 13.523438 -18.125 13.660156 -18.0625 13.765625 -18.0625 C 13.960938 -18.0625 14.0625 -18.222656 14.0625 -18.546875 L 14.0625 -26.96875 C 14.0625 -27.488281 14.285156 -27.75 14.734375 -27.75 L 20.796875 -27.75 C 21.023438 -27.75 21.203125 -27.675781 21.328125 -27.53125 C 21.453125 -27.382812 21.515625 -27.171875 21.515625 -26.890625 L 21.515625 -0.9375 C 21.515625 -0.613281 21.4375 -0.375 21.28125 -0.21875 C 21.132812 -0.0703125 20.875 0 20.5 0 Z M 14.03125 -14.140625 C 13.601562 -14.640625 13.195312 -15 12.8125 -15.21875 C 12.425781 -15.445312 11.957031 -15.5625 11.40625 -15.5625 C 10.457031 -15.5625 9.722656 -15.125 9.203125 -14.25 C 8.679688 -13.375 8.421875 -11.914062 8.421875 -9.875 C 8.421875 -7.800781 8.664062 -6.320312 9.15625 -5.4375 C 9.65625 -4.550781 10.40625 -4.109375 11.40625 -4.109375 C 12.15625 -4.109375 12.78125 -4.335938 13.28125 -4.796875 C 13.78125 -5.265625 14.03125 -5.859375 14.03125 -6.578125 Z M 14.03125 -14.140625 "/></g></g></g><g fill="#1682d0" fill-opacity="1"><g transform="translate(80.424622, 35.69425)"><g><path d="M 8.484375 -7.9375 C 8.484375 -6.832031 8.835938 -5.992188 9.546875 -5.421875 C 10.265625 -4.847656 11.195312 -4.5625 12.34375 -4.5625 C 13.019531 -4.5625 13.664062 -4.71875 14.28125 -5.03125 C 14.90625 -5.34375 15.617188 -5.882812 16.421875 -6.65625 C 16.523438 -6.757812 16.625 -6.8125 16.71875 -6.8125 C 16.820312 -6.8125 16.984375 -6.773438 17.203125 -6.703125 L 20.609375 -5.3125 C 20.835938 -5.238281 20.953125 -5.085938 20.953125 -4.859375 C 20.953125 -4.710938 20.890625 -4.5625 20.765625 -4.40625 C 19.460938 -2.59375 18.109375 -1.34375 16.703125 -0.65625 C 15.296875 0.03125 13.503906 0.375 11.328125 0.375 C 9.359375 0.375 7.566406 -0.046875 5.953125 -0.890625 C 4.347656 -1.742188 3.082031 -2.925781 2.15625 -4.4375 C 1.238281 -5.945312 0.78125 -7.660156 0.78125 -9.578125 C 0.78125 -11.648438 1.253906 -13.488281 2.203125 -15.09375 C 3.148438 -16.695312 4.421875 -17.945312 6.015625 -18.84375 C 7.617188 -19.75 9.34375 -20.203125 11.1875 -20.203125 C 13.15625 -20.203125 14.90625 -19.773438 16.4375 -18.921875 C 17.96875 -18.078125 19.171875 -16.847656 20.046875 -15.234375 C 20.921875 -13.628906 21.359375 -11.71875 21.359375 -9.5 C 21.359375 -9.15625 21.320312 -8.921875 21.25 -8.796875 C 21.175781 -8.671875 20.988281 -8.59375 20.6875 -8.5625 L 9.046875 -8.5625 C 8.671875 -8.5625 8.484375 -8.351562 8.484375 -7.9375 Z M 13.46875 -12.421875 C 13.71875 -12.421875 13.882812 -12.453125 13.96875 -12.515625 C 14.0625 -12.578125 14.109375 -12.71875 14.109375 -12.9375 C 14.109375 -13.5625 13.878906 -14.195312 13.421875 -14.84375 C 12.972656 -15.5 12.335938 -15.828125 11.515625 -15.828125 C 10.691406 -15.828125 9.992188 -15.539062 9.421875 -14.96875 C 8.847656 -14.394531 8.578125 -13.554688 8.609375 -12.453125 Z M 13.46875 -12.421875 "/></g></g></g><g fill="#1682d0" fill-opacity="1"><g transform="translate(102.498134, 35.69425)"><g/></g></g></g></g></g></g></g></svg>